<?xml version="1.0" encoding="UTF-8" standalone="no"?>
<!-- Created with Inkscape (http://www.inkscape.org/) -->

<svg
   xmlns:dc="http://purl.org/dc/elements/1.1/"
   xmlns:cc="http://creativecommons.org/ns#"
   xmlns:rdf="http://www.w3.org/1999/02/22-rdf-syntax-ns#"
   xmlns:svg="http://www.w3.org/2000/svg"
   xmlns="http://www.w3.org/2000/svg"
   xmlns:sodipodi="http://sodipodi.sourceforge.net/DTD/sodipodi-0.dtd"
   xmlns:inkscape="http://www.inkscape.org/namespaces/inkscape"
   width="350"
   height="85"
   id="svg2"
   version="1.1"
   inkscape:version="0.48.4 r9939"
   sodipodi:docname="ntrklogo2.svg"
   inkscape:export-filename="/home/quids/Pictures/Art/NoTrack/ntrklogo2.png"
   inkscape:export-xdpi="99.529411"
   inkscape:export-ydpi="99.529411">
  <defs
     id="defs4">
    <filter
       id="filter3775"
       inkscape:label="Melted jelly, matte"
       inkscape:menu="Bevels"
       inkscape:menu-tooltip="Matte bevel with blurred edges"
       height="1.3"
       y="-0.15000001"
       width="1.3"
       x="-0.15000001"
       color-interpolation-filters="sRGB">
      <feComposite
         id="feComposite3777"
         in2="SourceGraphic"
         operator="arithmetic"
         result="fbSourceGraphic"
         in="SourceGraphic"
         k2="0.9"
         k1="0"
         k3="0"
         k4="0" />
      <feGaussianBlur
         id="feGaussianBlur3779"
         result="result0"
         in="fbSourceGraphic"
         stdDeviation="6" />
      <feSpecularLighting
         id="feSpecularLighting3781"
         specularExponent="15"
         specularConstant="0.89999998"
         surfaceScale="6"
         lighting-color="#ffffff"
         result="result1"
         in="result0">
        <feDistantLight
           id="feDistantLight3783"
           azimuth="235"
           elevation="65" />
      </feSpecularLighting>
      <feComposite
         id="feComposite3785"
         in2="result0"
         k3="0.1"
         k2="0.7"
         operator="arithmetic"
         result="result4"
         in="result1"
         k1="0.1"
         k4="0" />
      <feComposite
         id="feComposite3787"
         in2="result0"
         operator="atop"
         result="result2"
         in="result4" />
    </filter>
    <filter
       id="filter3775-2"
       inkscape:label="Melted jelly, matte"
       inkscape:menu="Bevels"
       inkscape:menu-tooltip="Matte bevel with blurred edges"
       height="1.3"
       y="-0.15000001"
       width="1.3"
       x="-0.15000001"
       color-interpolation-filters="sRGB">
      <feComposite
         k4="0"
         k3="0"
         k1="0"
         id="feComposite3777-4"
         in2="SourceGraphic"
         operator="arithmetic"
         result="fbSourceGraphic"
         in="SourceGraphic"
         k2="0.9" />
      <feGaussianBlur
         id="feGaussianBlur3779-1"
         result="result0"
         in="fbSourceGraphic"
         stdDeviation="6" />
      <feSpecularLighting
         id="feSpecularLighting3781-7"
         specularExponent="15"
         specularConstant="0.89999998"
         surfaceScale="6"
         lighting-color="#ffffff"
         result="result1"
         in="result0">
        <feDistantLight
           id="feDistantLight3783-3"
           azimuth="235"
           elevation="65" />
      </feSpecularLighting>
      <feComposite
         k4="0"
         id="feComposite3785-7"
         in2="result0"
         k3="0.1"
         k2="0.7"
         operator="arithmetic"
         result="result4"
         in="result1"
         k1="0.1" />
      <feComposite
         id="feComposite3787-6"
         in2="result0"
         operator="atop"
         result="result2"
         in="result4" />
    </filter>
    <filter
       inkscape:collect="always"
       id="filter3944"
       x="-0.043689057"
       width="1.0873781"
       y="-0.21687397"
       height="1.433748"
       color-interpolation-filters="sRGB">
      <feGaussianBlur
         inkscape:collect="always"
         stdDeviation="5.450998"
         id="feGaussianBlur3946" />
    </filter>
    <filter
       inkscape:collect="always"
       id="filter3996"
       color-interpolation-filters="sRGB">
      <feGaussianBlur
         inkscape:collect="always"
         stdDeviation="0.86273438"
         id="feGaussianBlur3998" />
    </filter>
  </defs>
  <sodipodi:namedview
     id="base"
     pagecolor="#ffffff"
     bordercolor="#666666"
     borderopacity="1.0"
     inkscape:pageopacity="0.0"
     inkscape:pageshadow="2"
     inkscape:zoom="2.8"
     inkscape:cx="141.95701"
     inkscape:cy="5.8597058"
     inkscape:document-units="px"
     inkscape:current-layer="layer1"
     showgrid="false"
     inkscape:window-width="1856"
     inkscape:window-height="1080"
     inkscape:window-x="64"
     inkscape:window-y="0"
     inkscape:window-maximized="1" />
  <metadata
     id="metadata7">
    <rdf:RDF>
      <cc:Work
         rdf:about="">
        <dc:format>image/svg+xml</dc:format>
        <dc:type
           rdf:resource="http://purl.org/dc/dcmitype/StillImage" />
        <dc:title />
      </cc:Work>
    </rdf:RDF>
  </metadata>
  <g
     inkscape:groupmode="layer"
     id="layer3"
     inkscape:label="Blur"
     style="display:inline"
     transform="translate(0,-5)">
    <path
       transform="translate(0,4)"
       style="font-size:75px;font-style:normal;font-variant:normal;font-weight:500;font-stretch:normal;text-indent:0;text-align:center;text-decoration:none;line-height:127.99999714%;letter-spacing:5px;word-spacing:normal;text-transform:none;direction:ltr;block-progression:tb;writing-mode:lr-tb;text-anchor:middle;baseline-shift:baseline;color:#000000;fill:#0098e2;fill-opacity:1;fill-rule:evenodd;stroke:none;stroke-width:2;marker:none;visibility:visible;display:inline;overflow:visible;filter:url(#filter3944);enable-background:accumulate;font-family:Ubuntu;-inkscape-font-specification:Ubuntu Medium"
       d="m 304.96875,15.09375 -9.09375,1.5 a 0.52317498,0.52317498 0 0 0 -0.4375,0.53125 l 0,56.71875 a 0.52317498,0.52317498 0 0 0 0.53125,0.53125 l 9.09375,0 a 0.52317498,0.52317498 0 0 0 0.53125,-0.53125 l 0,-16.84375 c 1.05952,0.846731 2.12342,1.740583 3.21875,2.875 1.38897,1.389007 2.75271,2.879402 4.09375,4.46875 1.33701,1.584633 2.57827,3.220373 3.71875,4.90625 a 0.52317498,0.52317498 0 0 0 0,0.03125 c 1.19033,1.686353 2.23185,3.27435 3.125,4.8125 a 0.52317498,0.52317498 0 0 0 0.4375,0.28125 l 10.5,0 a 0.52317498,0.52317498 0 0 0 0.46875,-0.78125 C 330.24579,71.874079 329.10882,70.013125 327.75,68 c -1.35632,-2.009295 -2.81794,-4.022093 -4.375,-6.03125 -1.55858,-2.011015 -3.14903,-3.891914 -4.8125,-5.65625 -1.52686,-1.665615 -2.96775,-3.04921 -4.375,-4.25 2.67543,-2.730886 5.33964,-5.538137 7.96875,-8.40625 2.80241,-3.002578 5.43472,-5.884395 7.9375,-8.6875 a 0.52317498,0.52317498 0 0 0 -0.375,-0.875 l -10.71875,0 a 0.52317498,0.52317498 0 0 0 -0.40625,0.1875 c -0.79448,0.943444 -1.7883,2.075904 -2.9375,3.375 -1.10111,1.251273 -2.22131,2.571622 -3.46875,3.96875 -1.24807,1.347927 -2.54223,2.723367 -3.84375,4.125 -0.97363,1.011142 -1.8663,1.920864 -2.75,2.84375 l 0,-32.96875 a 0.52317498,0.52317498 0 0 0 -0.625,-0.53125 z M 32.25,21.34375 A 0.52317498,0.52317498 0 0 0 31.78125,21.875 l 0,51.96875 A 0.52317498,0.52317498 0 0 0 32.3125,74.375 l 9.3125,0 a 0.52317498,0.52317498 0 0 0 0.53125,-0.53125 l 0,-35.65625 c 1.813784,2.216533 3.659182,4.557735 5.625,7.25 a 0.52317498,0.52317498 0 0 0 0.03125,0 c 2.344614,3.092952 4.631083,6.284119 6.875,9.625 2.245733,3.293804 4.401824,6.60918 6.5,9.90625 2.097661,3.246444 4.023134,6.313669 5.71875,9.15625 a 0.52317498,0.52317498 0 0 0 0.4375,0.25 l 8.03125,0 a 0.52317498,0.52317498 0 0 0 0.53125,-0.53125 l 0,-51.96875 A 0.52317498,0.52317498 0 0 0 75.375,21.34375 l -9.375,0 A 0.52317498,0.52317498 0 0 0 65.46875,21.875 l 0,32.78125 C 63.973086,52.339816 62.397766,49.961675 60.5625,47.375 c -0.0047,-0.0069 0.0047,-0.02435 0,-0.03125 -2.15074,-3.150258 -4.431297,-6.27499 -6.78125,-9.375 -2.298493,-3.097896 -4.575048,-6.055637 -6.875,-8.90625 -0.0055,-0.0069 0.0055,-0.02434 0,-0.03125 -2.302445,-2.901898 -4.49206,-5.422846 -6.5,-7.53125 a 0.52317498,0.52317498 0 0 0 -0.375,-0.15625 l -7.71875,0 a 0.52317498,0.52317498 0 0 0 -0.0625,0 z m 112.53125,0 A 0.52317498,0.52317498 0 0 0 144.3125,21.875 l 0,8.15625 a 0.52317498,0.52317498 0 0 0 0.53125,0.53125 l 15.4375,0 0,43.28125 a 0.52317498,0.52317498 0 0 0 0.53125,0.53125 l 9.53125,0 a 0.52317498,0.52317498 0 0 0 0.53125,-0.53125 l 0,-43.28125 15.4375,0 a 0.52317498,0.52317498 0 0 0 0.53125,-0.53125 l 0,-8.15625 a 0.52317498,0.52317498 0 0 0 -0.53125,-0.53125 l -41.46875,0 a 0.52317498,0.52317498 0 0 0 -0.0625,0 z m -40.75,11.75 c -2.80264,4.1e-5 -5.388145,0.540312 -7.75,1.5625 -0.0091,0.0039 -0.02217,-0.0039 -0.03125,0 -2.354936,0.976835 -4.413311,2.40456 -6.15625,4.25 -1.699322,1.853832 -3.06056,4.081978 -4.03125,6.6875 -0.9237,2.565849 -1.375004,5.443851 -1.375,8.59375 -4e-6,3.149939 0.452689,6.043061 1.375,8.65625 0.97069,2.605563 2.331924,4.833704 4.03125,6.6875 1.698679,1.853118 3.699692,3.285198 6.0625,4.3125 2.371487,1.031088 5.0127,1.562499 7.875,1.5625 2.86225,-10e-7 5.50347,-0.531414 7.875,-1.5625 2.41199,-1.026391 4.45442,-2.45599 6.15625,-4.3125 1.70239,-1.857189 3.01752,-4.080998 3.9375,-6.6875 0.92226,-2.613184 1.37496,-5.506316 1.375,-8.65625 -4e-5,-3.151301 -0.46113,-6.024208 -1.4375,-8.59375 -0.92124,-2.610045 -2.26859,-4.8327 -3.96875,-6.6875 -1.69324,-1.847099 -3.75645,-3.27339 -6.15625,-4.25 -0.009,-0.0039 -0.0222,0.0039 -0.0312,0 -2.3619,-1.022186 -4.9474,-1.562459 -7.75,-1.5625 z m 129.5625,0 c -2.5314,4.1e-5 -4.92538,0.250677 -7.15625,0.65625 -2.21236,0.402284 -3.89336,0.770011 -5.09375,1.1875 a 0.52317498,0.52317498 0 0 0 -0.375,0.59375 l 1.125,7.34375 a 0.52317498,0.52317498 0 0 0 0.71875,0.40625 c 1.05021,-0.381867 2.45387,-0.734027 4.1875,-1.03125 1.71902,-0.29466 3.6155,-0.437467 5.6875,-0.4375 1.50639,3.2e-5 2.71185,0.197277 3.625,0.5625 0.9719,0.370285 1.70998,0.88752 2.25,1.5625 a 0.52317498,0.52317498 0 0 0 0.0312,0.03125 c 0.59806,0.64411 1.02265,1.386188 1.25,2.25 0.2379,0.904168 0.34372,1.866535 0.34375,2.875 l 0,0.875 c -1.01951,-0.217739 -2.01686,-0.416284 -2.9375,-0.5 -1.11359,-0.151826 -2.1839,-0.249975 -3.21875,-0.25 -2.17791,2.4e-5 -4.28482,0.264789 -6.3125,0.71875 -0.01,0.0022 -0.0214,-0.0022 -0.0312,0 -1.99466,0.412646 -3.78936,1.120004 -5.34375,2.15625 -1.56925,0.993875 -2.81047,2.319425 -3.75,3.9375 a 0.52317498,0.52317498 0 0 0 -0.0312,0 C 217.6609,57.675446 217.2188,59.68317 217.2188,62 c 0,2.405661 0.39639,4.437309 1.1875,6.125 0.83241,1.664826 1.95601,3.04266 3.375,4.09375 a 0.52317498,0.52317498 0 0 0 0,0.03125 c 1.46219,1.04443 3.21091,1.786655 5.21875,2.25 1.99867,0.461233 4.21312,0.687499 6.59375,0.6875 3.55808,-10e-7 6.73385,-0.203712 9.5625,-0.65625 0.0135,-0.0019 0.0178,0.0019 0.0312,0 2.83731,-0.398824 4.9913,-0.790553 6.40625,-1.09375 A 0.52317498,0.52317498 0 0 0 250,72.9375 l 0,-23.78125 c -3e-5,-2.328418 -0.28341,-4.458707 -0.84375,-6.40625 -0.002,-0.0098 0.003,-0.02151 0,-0.03125 -0.51768,-2.001433 -1.45227,-3.716733 -2.75,-5.125 -0.006,-0.0062 0.006,-0.02502 0,-0.03125 -1.26423,-1.41561 -2.95603,-2.541788 -5.0625,-3.3125 -2.12669,-0.77801 -4.70643,-1.156209 -7.75,-1.15625 z m 44.1875,0 c -3.06323,4.1e-5 -5.84159,0.57526 -8.3125,1.65625 -2.46081,1.076638 -4.56206,2.563882 -6.3125,4.46875 -1.69633,1.901967 -3.04773,4.140454 -3.96875,6.75 -0.922,2.561142 -1.375,5.327907 -1.375,8.28125 0,2.999521 0.43345,5.803517 1.25,8.40625 0.81911,2.559759 2.03862,4.812249 3.6875,6.71875 a 0.52317498,0.52317498 0 0 0 0.0312,0 c 1.70294,1.857767 3.8017,3.330197 6.3125,4.40625 a 0.52317498,0.52317498 0 0 0 0.0312,0.03125 c 2.57368,1.029478 5.53543,1.531249 8.9375,1.53125 2.1814,-10e-7 4.30652,-0.217562 6.34375,-0.625 2.07388,-0.404665 3.60949,-0.836013 4.6875,-1.375 a 0.52317498,0.52317498 0 0 0 0.3125,-0.5625 l -1.28125,-7.5 a 0.52317498,0.52317498 0 0 0 -0.71875,-0.375 c -1.05997,0.43362 -2.33747,0.798745 -3.8125,1.09375 -1.46386,0.292773 -2.94972,0.406257 -4.46875,0.40625 -4.05548,7e-6 -6.81018,-1.063952 -8.4375,-3.15625 -1.66318,-2.185866 -2.50001,-5.178229 -2.5,-9 -1e-5,-3.969784 0.90763,-6.951799 2.65625,-9.03125 1.74609,-2.123621 4.248,-3.187469 7.6875,-3.1875 1.46074,3.1e-5 2.80004,0.146202 4.0625,0.4375 1.32361,0.294174 2.48519,0.658874 3.5,1.09375 a 0.52317498,0.52317498 0 0 0 0.71875,-0.34375 l 1.96875,-7.4375 a 0.52317498,0.52317498 0 0 0 -0.3125,-0.59375 c -3.36292,-1.375685 -6.92332,-2.093709 -10.6875,-2.09375 z m -72.125,0.15625 c -3.22181,4e-5 -6.18905,0.331992 -8.875,0.9375 -0.01,0.0022 -0.0216,-0.0022 -0.0312,0 -2.60386,0.552178 -4.81914,1.153392 -6.59375,1.8125 a 0.52317498,0.52317498 0 0 0 -0.34375,0.5 l 0,37.34375 a 0.52317498,0.52317498 0 0 0 0.53125,0.53125 l 9.09375,0 a 0.52317498,0.52317498 0 0 0 0.53125,-0.53125 l 0,-31.03125 c 0.43172,-0.123981 0.9696,-0.272858 1.875,-0.4375 1.11965,-0.194693 2.1533,-0.249969 3.125,-0.25 1.72258,3.1e-5 3.22301,0.118806 4.46875,0.40625 a 0.52317498,0.52317498 0 0 0 0.0312,0 c 1.33662,0.247559 2.38423,0.513531 3.09375,0.75 a 0.52317498,0.52317498 0 0 0 0.65625,-0.40625 l 1.5625,-7.65625 A 0.52317498,0.52317498 0 0 0 214.4375,34.625 c -0.48629,-0.162044 -1.10328,-0.288941 -1.84375,-0.4375 -0.01,-0.0026 -0.0214,0.0026 -0.0312,0 -0.76801,-0.203051 -1.53619,-0.367761 -2.34375,-0.46875 l 0,0.03125 c -0.79601,-0.148253 -1.5999,-0.291765 -2.40625,-0.34375 -0.0117,-0.0015 -0.0196,0.0014 -0.0312,0 -0.79842,-0.09889 -1.50147,-0.156208 -2.125,-0.15625 z m -101.625,8.78125 c 2.86411,3.1e-5 4.9676,1.070437 6.53125,3.25 a 0.52317498,0.52317498 0 0 0 0.0312,0 c 1.61336,2.135396 2.43747,5.083399 2.4375,8.90625 -3e-5,3.873868 -0.82188,6.876641 -2.4375,9.0625 a 0.52317498,0.52317498 0 0 0 -0.0312,0 c -1.56234,2.177777 -3.66352,3.218757 -6.53125,3.21875 -2.86779,7e-6 -5.044962,-1.038743 -6.65625,-3.21875 l 0.03125,0 c -1.566968,-2.184228 -2.375013,-5.184773 -2.375,-9.0625 -1.3e-5,-3.82676 0.779071,-6.772589 2.34375,-8.90625 1.612633,-2.181791 3.79209,-3.249969 6.65625,-3.25 z M 235.375,56.8125 c 1.12914,1.8e-5 2.14715,0.07424 3.0625,0.21875 0.76837,0.121339 1.29238,0.253029 1.75,0.375 l 0,9.15625 c -1.38166,0.245103 -3.29702,0.375005 -5.84375,0.375 -2.23653,6e-6 -3.98022,-0.391037 -5.21875,-1.125 -1.17925,-0.742481 -1.75001,-2.017926 -1.75,-4.0625 -1e-5,-1.020722 0.22986,-1.778049 0.65625,-2.375 a 0.52317498,0.52317498 0 0 0 0,-0.03125 c 0.45386,-0.680787 0.99672,-1.170224 1.71875,-1.53125 0.80607,-0.379319 1.67694,-0.639028 2.625,-0.78125 1.02553,-0.14649 2.02395,-0.218732 3,-0.21875 z"
       id="path3938"
       inkscape:connector-curvature="0" />
  </g>
  <g
     inkscape:label="Text"
     inkscape:groupmode="layer"
     id="layer1"
     transform="translate(0,-967.36218)"
     style="display:inline">
    <g
       style="font-size:75px;font-style:normal;font-variant:normal;font-weight:500;font-stretch:normal;text-indent:0;text-align:center;text-decoration:none;line-height:127.99999714000000495%;letter-spacing:5px;word-spacing:normal;text-transform:none;direction:ltr;block-progression:tb;writing-mode:lr-tb;text-anchor:middle;baseline-shift:baseline;color:#000000;fill:#0098e2;fill-opacity:1;fill-rule:evenodd;stroke:none;stroke-width:2;marker:none;visibility:visible;display:inline;overflow:visible;enable-background:accumulate;font-family:Ubuntu;-inkscape-font-specification:Ubuntu Medium"
       id="text2985">
      <path
         d="m 67.337036,1040.1997 c -1.700039,-2.85 -3.600038,-5.9 -5.7,-9.15 -2.100033,-3.3 -4.275031,-6.6 -6.525,-9.9 -2.250027,-3.35 -4.550024,-6.575 -6.9,-9.675 -2.30002,-3.15 -4.500017,-5.975 -6.6,-8.475 l 0,37.2 -9.3,0 0,-51.97499 7.725,0 c 1.999984,2.10005 4.149982,4.60004 6.45,7.5 2.299977,2.85004 4.599975,5.82499 6.9,8.92499 2.34997,3.1 4.599968,6.225 6.75,9.375 2.199964,3.1 4.149962,6 5.85,8.7 l 0,-34.49999 9.375,0 0,51.97499 -8.025,0"
         style="letter-spacing:0px;fill:#0098e2;marker:none"
         id="path3012"
         inkscape:connector-curvature="0" />
      <path
         d="m 122.85461,1020.5497 c -4e-5,3.1 -0.45004,5.925 -1.35,8.475 -0.90003,2.55 -2.17503,4.725 -3.825,6.525 -1.65003,1.8 -3.65003,3.2 -6,4.2 -2.30002,1 -4.85002,1.5 -7.65,1.5 -2.80002,0 -5.350013,-0.5 -7.649996,-1.5 -2.300012,-1 -4.27501,-2.4 -5.925,-4.2 -1.650007,-1.8 -2.950006,-3.975 -3.9,-6.525 -0.900004,-2.55 -1.350003,-5.375 -1.35,-8.475 -3e-6,-3.1 0.449996,-5.9 1.35,-8.4 0.949994,-2.55 2.249993,-4.725 3.9,-6.525 1.69999,-1.8 3.699988,-3.175 6,-4.125 2.299983,-1 4.824976,-1.49995 7.574996,-1.49999 2.74998,4e-5 5.27498,0.49999 7.575,1.49999 2.34997,0.95 4.34997,2.325 6,4.125 1.64997,1.8 2.92497,3.975 3.825,6.525 0.94996,2.5 1.42496,5.3 1.425,8.4 m -9.3,0 c -3e-5,-3.9 -0.85003,-6.975 -2.55,-9.225 -1.65002,-2.3 -3.97502,-3.45 -6.975,-3.45 -3.00002,0 -5.350013,1.15 -7.049996,3.45 -1.650013,2.25 -2.475013,5.325 -2.475,9.225 -1.3e-5,3.95 0.824987,7.075 2.475,9.375 1.699983,2.3 4.049976,3.45 7.049996,3.45 2.99998,0 5.32498,-1.15 6.975,-3.45 1.69997,-2.3 2.54997,-5.425 2.55,-9.375"
         style="letter-spacing:0px;fill:#0098e2;marker:none"
         id="path3014"
         inkscape:connector-curvature="0" />
      <path
         d="m 186.31047,988.22471 0,8.175 -15.975,0 0,43.79999 -9.525,0 0,-43.79999 -15.975,0 0,-8.175 41.475,0"
         style="letter-spacing:0px;fill:#0098e2;marker:none"
         id="path3016"
         inkscape:connector-curvature="0" />
      <path
         d="m 212.70813,1009.1497 c -0.75003,-0.25 -1.80003,-0.5 -3.15,-0.75 -1.30002,-0.3 -2.82502,-0.45 -4.575,-0.45 -1.00002,0 -2.07502,0.1 -3.225,0.3 -1.10002,0.2 -1.87502,0.375 -2.325,0.525 l 0,31.425 -9.075,0 0,-37.35 c 1.74999,-0.65 3.92499,-1.25 6.525,-1.8 2.64998,-0.6 5.57498,-0.9 8.775,-0.9 0.59998,0 1.29998,0.05 2.1,0.15 0.79998,0.05 1.59998,0.15 2.4,0.3 0.79997,0.1 1.57497,0.25 2.325,0.45 0.74997,0.15 1.34997,0.3 1.8,0.45 l -1.575,7.65"
         style="letter-spacing:0px;fill:#0098e2;marker:none"
         id="path3018"
         inkscape:connector-curvature="0" />
      <path
         d="m 234.33391,1033.8247 c 2.79998,0 4.92498,-0.15 6.375,-0.45 l 0,-10.05 c -0.50002,-0.15 -1.22502,-0.3 -2.175,-0.45 -0.95002,-0.15 -2.00002,-0.225 -3.15,-0.225 -1.00002,0 -2.02502,0.075 -3.075,0.225 -1.00002,0.15 -1.92501,0.425 -2.775,0.825 -0.80001,0.4 -1.45001,0.975 -1.95,1.725 -0.50001,0.7 -0.75001,1.6 -0.75,2.7 -1e-5,2.15 0.67499,3.65 2.025,4.5 1.34999,0.8 3.17498,1.2 5.475,1.2 m -0.75,-33.82499 c 2.99998,4e-5 5.52498,0.37499 7.575,1.12499 2.04997,0.75 3.67497,1.8 4.875,3.15 1.24997,1.35 2.12497,3 2.625,4.95 0.54997,1.9 0.82497,4 0.825,6.3 l 0,23.775 c -1.40003,0.3 -3.52503,0.65 -6.375,1.05 -2.80002,0.45 -5.97502,0.675 -9.525,0.675 -2.35002,0 -4.50001,-0.225 -6.45,-0.675 -1.95001,-0.45 -3.62501,-1.175 -5.025,-2.175 -1.35,-1 -2.425,-2.3 -3.225,-3.9 -0.75,-1.6 -1.125,-3.575 -1.125,-5.925 0,-2.25 0.425,-4.15 1.275,-5.7 0.9,-1.55 2.09999,-2.8 3.6,-3.75 1.49999,-1 3.22499,-1.7 5.175,-2.1 1.99999,-0.45 4.07498,-0.675 6.225,-0.675 0.99998,0 2.04998,0.075 3.15,0.225 1.09998,0.1 2.27498,0.3 3.525,0.6 l 0,-1.5 c -2e-5,-1.05 -0.12502,-2.05 -0.375,-3 -0.25002,-0.95 -0.70002,-1.775 -1.35,-2.475 -0.60002,-0.75 -1.42502,-1.325 -2.475,-1.725 -1.00002,-0.4 -2.27502,-0.6 -3.825,-0.6 -2.10001,0 -4.02501,0.15 -5.775,0.45 -1.75001,0.3 -3.17501,0.65 -4.275,1.05 l -1.125,-7.35 c 1.14999,-0.4 2.82499,-0.8 5.025,-1.2 2.19999,-0.4 4.54998,-0.59995 7.05,-0.59999"
         style="letter-spacing:0px;fill:#0098e2;marker:none"
         id="path3020"
         inkscape:connector-curvature="0" />
      <path
         d="m 258.34915,1020.6247 c -1e-5,-2.9 0.44999,-5.6 1.35,-8.1 0.89999,-2.55 2.17499,-4.75 3.825,-6.6 1.69999,-1.85 3.74998,-3.3 6.15,-4.35 2.39998,-1.05 5.09998,-1.57495 8.1,-1.57499 3.69997,4e-5 7.19997,0.67499 10.5,2.02499 l -1.95,7.425 c -1.05004,-0.45 -2.25003,-0.825 -3.6,-1.125 -1.30003,-0.3 -2.70003,-0.45 -4.2,-0.45 -3.55002,0 -6.25002,1.125 -8.1,3.375 -1.85002,2.2 -2.77502,5.325 -2.775,9.375 -2e-5,3.9 0.87498,7 2.625,9.3 1.74998,2.25 4.69998,3.375 8.85,3.375 1.54997,0 3.07497,-0.15 4.575,-0.45 1.49997,-0.3 2.79996,-0.675 3.9,-1.125 l 1.275,7.5 c -1.00004,0.5 -2.52504,0.95 -4.575,1.35 -2.00003,0.4 -4.07503,0.6 -6.225,0.6 -3.35002,0 -6.27502,-0.5 -8.775,-1.5 -2.45002,-1.05 -4.50001,-2.475 -6.15,-4.275 -1.60001,-1.85 -2.80001,-4.025 -3.6,-6.525 -0.80001,-2.55 -1.20001,-5.3 -1.2,-8.25"
         style="letter-spacing:0px;fill:#0098e2;marker:none"
         id="path3022"
         inkscape:connector-curvature="0" />
      <path
         d="m 305.04836,1016.2747 c 1.14999,-1.2 2.37499,-2.475 3.675,-3.825 1.29998,-1.4 2.57498,-2.775 3.825,-4.125 1.24998,-1.4 2.42498,-2.725 3.525,-3.975 1.14998,-1.3 2.12498,-2.425 2.925,-3.375 l 10.725,0 c -2.50003,2.8 -5.15003,5.7 -7.95,8.7 -2.75002,3 -5.52502,5.925 -8.325,8.775 1.49998,1.25 3.07498,2.775 4.725,4.575 1.64997,1.75 3.24997,3.625 4.8,5.625 1.54997,2 2.99997,4 4.35,6 1.34997,2 2.47496,3.85 3.375,5.55 l -10.5,0 c -0.90002,-1.55 -1.95002,-3.175 -3.15,-4.875 -1.15002,-1.7 -2.40002,-3.35 -3.75,-4.95 -1.35002,-1.6 -2.72502,-3.1 -4.125,-4.5 -1.40001,-1.45 -2.77501,-2.675 -4.125,-3.675 l 0,18 -9.075,0 0,-56.69999 9.075,-1.5 0,34.27499"
         style="letter-spacing:0px;fill:#0098e2;marker:none"
         id="path3024"
         inkscape:connector-curvature="0" />
    </g>
  </g>
  <g
     inkscape:groupmode="layer"
     id="layer4"
     inkscape:label="Light"
     style="display:inline"
     transform="translate(0,-5)">
    <path
       transform="translate(0,4)"
       style="font-size:75px;font-style:normal;font-variant:normal;font-weight:500;font-stretch:normal;text-indent:0;text-align:center;text-decoration:none;line-height:127.99999714%;letter-spacing:5px;word-spacing:normal;text-transform:none;direction:ltr;block-progression:tb;writing-mode:lr-tb;text-anchor:middle;baseline-shift:baseline;color:#000000;fill:#2fbbff;fill-opacity:1;fill-rule:evenodd;stroke:none;stroke-width:2;marker:none;visibility:visible;display:inline;overflow:visible;filter:url(#filter3996);enable-background:accumulate;font-family:Ubuntu;-inkscape-font-specification:Ubuntu Medium"
       d="m 302.53125,18.625 -4.03125,0.65625 0,52.03125 4.03125,0 0,-15.46875 a 2.5256339,2.5256339 0 0 1 4.03125,-2.03125 c 1.46049,1.081879 2.92964,2.380355 4.40625,3.90625 0.0111,0.01143 0.0202,0.01979 0.0312,0.03125 1.44255,1.44438 2.86636,2.98517 4.25,4.625 1.39765,1.65651 2.68929,3.376169 3.875,5.125 0.0127,0.01871 0.0186,0.04379 0.0312,0.0625 0.92011,1.306594 1.66415,2.529541 2.40625,3.75 l 4.65625,0 c -0.35632,-0.562371 -0.60122,-1.034192 -1,-1.625 -1.31972,-1.955082 -2.73425,-3.887896 -4.25,-5.84375 -1.50877,-1.946742 -3.04021,-3.787868 -4.625,-5.46875 a 2.5256339,2.5256339 0 0 1 -0.0312,0 c -1.57671,-1.719996 -3.09117,-3.169694 -4.5,-4.34375 A 2.5256339,2.5256339 0 0 1 311.625,50.3125 c 2.78184,-2.83152 5.55322,-5.742723 8.28125,-8.71875 a 2.5256339,2.5256339 0 0 1 0.0312,0 c 1.43085,-1.533053 2.71425,-2.960894 4.0625,-4.4375 l -3.84375,0 c -0.66965,0.778075 -1.34494,1.54748 -2.1875,2.5 -0.005,0.0055 0.005,0.02578 0,0.03125 -1.09048,1.239302 -2.27457,2.561282 -3.53125,3.96875 a 2.5256339,2.5256339 0 0 1 -0.0312,0.03125 c -1.25942,1.360186 -2.55122,2.733054 -3.84375,4.125 a 2.5256339,2.5256339 0 0 1 -0.0312,0.03125 c -1.29576,1.345605 -2.50442,2.610598 -3.65625,3.8125 a 2.5256339,2.5256339 0 0 1 -4.34375,-1.75 l 0,-31.28125 z m -267.6875,5.78125 0,46.90625 4.25,0 0,-34.6875 A 2.5256339,2.5256339 0 0 1 43.5625,35 c 2.142182,2.550274 4.343163,5.42713 6.65625,8.59375 0.0093,0.01277 0.02192,0.01847 0.03125,0.03125 2.361935,3.116998 4.702072,6.344949 6.96875,9.71875 0.0048,0.0072 -0.0048,0.02408 0,0.03125 2.260008,3.315412 4.43125,6.63788 6.53125,9.9375 0.0046,0.0073 -0.0046,0.02399 0,0.03125 1.819472,2.816271 3.435466,5.435319 4.96875,7.96875 l 4.125,0 0,-46.90625 -4.3125,0 0,31.96875 A 2.5256339,2.5256339 0 0 1 63.875,57.71875 C 62.207608,55.070618 60.24233,52.196651 58.0625,49.125 A 2.5256339,2.5256339 0 0 1 58.03125,49.09375 C 55.90527,45.979017 53.700198,42.879853 51.375,39.8125 a 2.5256339,2.5256339 0 0 1 -0.03125,-0.03125 c -2.282994,-3.077006 -4.537391,-5.993273 -6.8125,-8.8125 a 2.5256339,2.5256339 0 0 1 0,-0.03125 C 42.51523,28.395623 40.639759,26.301285 38.875,24.40625 l -4.03125,0 z m 112.53125,0 0,3.09375 13.4375,0 a 2.5256339,2.5256339 0 0 1 2.53125,2.53125 l 0,41.28125 4.46875,0 0,-41.28125 A 2.5256339,2.5256339 0 0 1 170.34375,27.5 l 13.4375,0 0,-3.09375 -36.40625,0 z m -43.34375,11.75 c -2.44394,3.6e-5 -4.596948,0.42669 -6.5625,1.28125 a 2.5256339,2.5256339 0 0 1 -0.03125,0.03125 c -1.975257,0.815895 -3.635716,1.960948 -5.09375,3.5 -1.406156,1.53401 -2.557289,3.387048 -3.40625,5.65625 -0.0033,0.0091 0.0032,0.02218 0,0.03125 -0.779234,2.175913 -1.187504,4.684143 -1.1875,7.53125 -4e-6,2.847284 0.401582,5.355803 1.1875,7.59375 0.0032,0.0092 -0.0033,0.02204 0,0.03125 0.848961,2.269237 2.000112,4.122293 3.40625,5.65625 1.414945,1.543589 3.034388,2.725554 5.03125,3.59375 1.954795,0.849916 4.15687,1.281249 6.65625,1.28125 2.49933,-10e-7 4.70139,-0.431324 6.65625,-1.28125 2.05056,-0.87259 3.72503,-2.066533 5.125,-3.59375 1.39687,-1.523885 2.50872,-3.378962 3.3125,-5.65625 0.79229,-2.244897 1.18746,-4.765959 1.1875,-7.625 -4e-5,-2.852209 -0.42756,-5.335566 -1.25,-7.5 a 2.5256339,2.5256339 0 0 1 0,-0.0625 c -0.79767,-2.259951 -1.93613,-4.120604 -3.34375,-5.65625 -1.39604,-1.522897 -3.03591,-2.680698 -5.0625,-3.5 a 2.5256339,2.5256339 0 0 1 -0.0625,-0.03125 c -1.96561,-0.854569 -4.11862,-1.281214 -6.5625,-1.28125 z m 129.5625,0 c -2.34852,3.8e-5 -4.57406,0.220887 -6.625,0.59375 -1.21388,0.220727 -1.78486,0.388067 -2.625,0.59375 l 0.375,2.34375 c 0.60539,-0.130946 1.07088,-0.321067 1.75,-0.4375 1.89948,-0.325593 3.98347,-0.499965 6.21875,-0.5 1.74912,3.7e-5 3.30653,0.221777 4.71875,0.78125 0.009,0.0036 0.0222,-0.0036 0.0312,0 1.34413,0.519425 2.47457,1.376595 3.34375,2.40625 l 0.0312,-0.03125 c 0.035,0.03765 0.0594,0.08664 0.0937,0.125 0.009,0.01129 0.0222,0.01991 0.0312,0.03125 0.83722,0.944128 1.5021,2.076928 1.84375,3.375 0.30822,1.17141 0.46871,2.40589 0.46875,3.65625 l 0,1.5 a 2.5256339,2.5256339 0 0 1 -3.125,2.46875 c -1.13891,-0.273313 -2.18679,-0.474345 -3.15625,-0.5625 a 2.5256339,2.5256339 0 0 1 -0.125,0 c -1.0345,-0.141043 -1.98084,-0.21873 -2.8125,-0.21875 -1.96406,2.2e-5 -3.83446,0.215115 -5.65625,0.625 a 2.5256339,2.5256339 0 0 1 -0.0625,0 c -1.67624,0.343862 -3.08163,0.919013 -4.28125,1.71875 a 2.5256339,2.5256339 0 0 1 -0.0625,0.03125 c -1.14625,0.725967 -2.01564,1.652613 -2.71875,2.84375 -0.0101,0.01841 -0.0213,0.04387 -0.0312,0.0625 -0.5829,1.089738 -0.9375,2.542597 -0.9375,4.4375 0,2.048635 0.30761,3.610726 0.84375,4.78125 0.007,0.01457 0.0239,0.01676 0.0312,0.03125 0.004,0.008 -0.004,0.02326 0,0.03125 0.6304,1.239035 1.42328,2.169954 2.40625,2.90625 0.0115,0.0086 0.0197,0.02272 0.0312,0.03125 1.0944,0.775167 2.43819,1.367949 4.09375,1.75 1.71498,0.395765 3.70399,0.593749 5.90625,0.59375 3.45217,-10e-7 6.46733,-0.202902 9.09375,-0.625 a 2.5256339,2.5256339 0 0 1 0.0625,0 c 1.90305,-0.267098 2.96892,-0.467442 4.1875,-0.6875 l 0,-21.65625 c -3e-5,-2.107842 -0.24605,-3.96068 -0.71875,-5.59375 a 2.5256339,2.5256339 0 0 1 0,-0.0625 c -0.41006,-1.599127 -1.08695,-2.855105 -2.03125,-3.875 a 2.5256339,2.5256339 0 0 1 -0.0312,-0.03125 c -0.88249,-0.992753 -2.13908,-1.833617 -3.875,-2.46875 -1.67987,-0.614549 -3.89795,-0.968713 -6.6875,-0.96875 z m 44.1875,0 c -2.69489,3.6e-5 -5.03617,0.474836 -7.09375,1.375 -2.10651,0.921626 -3.82482,2.165087 -5.28125,3.75 -1.41848,1.595351 -2.54838,3.465201 -3.34375,5.71875 -0.79379,2.204984 -1.1875,4.607642 -1.1875,7.25 0,2.699821 0.3794,5.181312 1.09375,7.46875 0.003,0.0095 -0.003,0.02176 0,0.03125 0.69957,2.174728 1.7266,4.003306 3.0625,5.5625 1.37987,1.50533 3.09325,2.73553 5.21875,3.65625 0.0223,0.0097 0.0401,0.02164 0.0625,0.03125 2.13214,0.842449 4.68001,1.281249 7.75,1.28125 1.99825,-10e-7 3.92954,-0.167164 5.75,-0.53125 a 2.5256339,2.5256339 0 0 1 0.0312,0 c 1.06841,-0.208472 1.46597,-0.411986 2.15625,-0.625 l -0.4375,-2.5625 c -0.47763,0.120321 -0.86444,0.304138 -1.375,0.40625 -1.67464,0.334929 -3.36317,0.500008 -5.0625,0.5 -4.60641,8e-6 -8.50162,-1.332395 -10.84375,-4.34375 a 2.5256339,2.5256339 0 0 1 0,-0.03125 c -2.1692,-2.85091 -3.15626,-6.566004 -3.15625,-10.84375 -1e-5,-4.426494 1.04733,-8.188529 3.375,-10.96875 0.006,-0.0067 -0.006,-0.0246 0,-0.03125 l 0.0312,0 c 2.35211,-2.836781 5.93305,-4.281213 10,-4.28125 1.68934,3.6e-5 3.26858,0.189428 4.75,0.53125 0.459,0.102013 0.81654,0.286483 1.25,0.40625 l 0.6875,-2.53125 c -2.3772,-0.734755 -4.81508,-1.218722 -7.4375,-1.21875 z m -72.125,0.15625 c -3.03892,3.8e-5 -5.77941,0.291482 -8.21875,0.84375 a 2.5256339,2.5256339 0 0 1 -0.0312,0 c -1.83606,0.388424 -3.17912,0.821504 -4.53125,1.25 l 0,32.90625 4.03125,0 0,-28.90625 A 2.5256339,2.5256339 0 0 1 198.625,40 c 0.68279,-0.227558 1.52539,-0.413678 2.6875,-0.625 1.29641,-0.225431 2.5195,-0.312464 3.65625,-0.3125 1.84833,3.4e-5 3.52309,0.153776 5.0625,0.5 0.0282,0.0064 0.0656,-0.0065 0.0937,0 l 0,0.03125 c 0.25994,0.04866 0.41486,0.07599 0.65625,0.125 l 0.53125,-2.6875 C 210.83959,36.925252 210.376,36.816561 209.84375,36.75 a 2.5256339,2.5256339 0 0 1 -0.15625,-0.03125 c -0.72283,-0.135492 -1.42363,-0.208083 -2.09375,-0.25 A 2.5256339,2.5256339 0 0 1 207.4375,36.4375 c -0.73745,-0.09214 -1.33898,-0.124971 -1.78125,-0.125 z m -101.625,2.65625 c 3.62519,3.9e-5 6.89864,1.632352 8.96875,4.46875 0.0175,0.02399 0.0452,0.03833 0.0625,0.0625 2.08245,2.794591 3.03122,6.449602 3.03125,10.6875 -3e-5,4.30024 -0.94182,7.997424 -3.03125,10.84375 -0.008,0.01151 -0.0228,0.01977 -0.0312,0.03125 -2.07496,2.867183 -5.37692,4.468758 -9,4.46875 -3.63838,8e-6 -6.965589,-1.589435 -9.09375,-4.46875 A 2.5256339,2.5256339 0 0 1 94.9063,65.03125 c -2.050919,-2.858817 -2.937514,-6.54476 -2.9375,-10.84375 -1.4e-5,-4.253428 0.906782,-7.906966 2.96875,-10.71875 2.121664,-2.870477 5.43785,-4.499961 9.09375,-4.5 z M 235.375,53.75 c 1.25061,2e-5 2.4451,0.07359 3.5625,0.25 1.03929,0.16412 1.84475,0.36596 2.5,0.5625 a 2.5256339,2.5256339 0 0 1 1.8125,2.40625 L 243.25,67 a 2.5256339,2.5256339 0 0 1 -2.03125,2.46875 c -1.7454,0.361121 -3.97355,0.531256 -6.875,0.53125 -2.60654,7e-6 -4.89326,-0.443662 -6.78125,-1.5625 A 2.5256339,2.5256339 0 0 1 227.5,68.375 c -2.17433,-1.369002 -3.18751,-3.965995 -3.1875,-6.625 -1e-5,-1.458886 0.36124,-2.906699 1.1875,-4.09375 0.0135,-0.01933 0.0175,-0.04332 0.0312,-0.0625 0.71992,-1.059057 1.71897,-1.921967 2.875,-2.5 a 2.5256339,2.5256339 0 0 1 0.0625,-0.03125 c 1.06197,-0.499741 2.21789,-0.874854 3.46875,-1.0625 a 2.5256339,2.5256339 0 0 1 0.0312,0 c 1.16802,-0.166844 2.29052,-0.24998 3.40625,-0.25 z"
       id="path3990"
       inkscape:connector-curvature="0" />
  </g>
</svg>
