<?xml version="1.0" encoding="UTF-8" standalone="no"?>
<!-- Created with Inkscape (http://www.inkscape.org/) -->

<svg
   xmlns:dc="http://purl.org/dc/elements/1.1/"
   xmlns:cc="http://creativecommons.org/ns#"
   xmlns:rdf="http://www.w3.org/1999/02/22-rdf-syntax-ns#"
   xmlns:svg="http://www.w3.org/2000/svg"
   xmlns="http://www.w3.org/2000/svg"
   xmlns:sodipodi="http://sodipodi.sourceforge.net/DTD/sodipodi-0.dtd"
   xmlns:inkscape="http://www.inkscape.org/namespaces/inkscape"
   width="1920"
   height="1080"
   viewBox="0 0 1920 1080"
   id="svg2"
   version="1.1"
   inkscape:version="0.91 r13725"
   sodipodi:docname="New.svg">
  <defs
     id="defs4">
    <linearGradient
       id="linearGradient4444">
      <stop
         id="stop4446"
         offset="0"
         style="stop-color:#008989;stop-opacity:1" />
      <stop
         style="stop-color:#06a6a6;stop-opacity:1;"
         offset="0.15468538"
         id="stop4506" />
      <stop
         style="stop-color:#0cc4c4;stop-opacity:1;"
         offset="0.30937076"
         id="stop4482" />
      <stop
         style="stop-color:#18ffff;stop-opacity:1"
         offset="0.61874151"
         id="stop4460" />
      <stop
         id="stop4448"
         offset="1"
         style="stop-color:#006262;stop-opacity:1" />
    </linearGradient>
    <filter
       color-interpolation-filters="sRGB"
       x="-0.15000001"
       width="1.3"
       y="-0.15000001"
       height="1.3"
       inkscape:menu-tooltip="Matte bevel with blurred edges"
       inkscape:menu="Bevels"
       inkscape:label="Melted jelly, matte"
       id="filter3775">
      <feComposite
         k4="0"
         k3="0"
         k1="0"
         k2="0.9"
         in="SourceGraphic"
         result="fbSourceGraphic"
         operator="arithmetic"
         in2="SourceGraphic"
         id="feComposite3777" />
      <feGaussianBlur
         stdDeviation="6"
         in="fbSourceGraphic"
         result="result0"
         id="feGaussianBlur3779" />
      <feSpecularLighting
         in="result0"
         result="result1"
         lighting-color="#ffffff"
         surfaceScale="6"
         specularConstant="0.89999998"
         specularExponent="15"
         id="feSpecularLighting3781">
        <feDistantLight
           elevation="65"
           azimuth="235"
           id="feDistantLight3783" />
      </feSpecularLighting>
      <feComposite
         k4="0"
         k1="0.1"
         in="result1"
         result="result4"
         operator="arithmetic"
         k2="0.7"
         k3="0.1"
         in2="result0"
         id="feComposite3785" />
      <feComposite
         in="result4"
         result="result2"
         operator="atop"
         in2="result0"
         id="feComposite3787" />
    </filter>
    <filter
       color-interpolation-filters="sRGB"
       x="-0.15000001"
       width="1.3"
       y="-0.15000001"
       height="1.3"
       inkscape:menu-tooltip="Matte bevel with blurred edges"
       inkscape:menu="Bevels"
       inkscape:label="Melted jelly, matte"
       id="filter3775-2">
      <feComposite
         k2="0.9"
         in="SourceGraphic"
         result="fbSourceGraphic"
         operator="arithmetic"
         in2="SourceGraphic"
         id="feComposite3777-4"
         k1="0"
         k3="0"
         k4="0" />
      <feGaussianBlur
         stdDeviation="6"
         in="fbSourceGraphic"
         result="result0"
         id="feGaussianBlur3779-1" />
      <feSpecularLighting
         in="result0"
         result="result1"
         lighting-color="#ffffff"
         surfaceScale="6"
         specularConstant="0.89999998"
         specularExponent="15"
         id="feSpecularLighting3781-7">
        <feDistantLight
           elevation="65"
           azimuth="235"
           id="feDistantLight3783-3" />
      </feSpecularLighting>
      <feComposite
         k1="0.1"
         in="result1"
         result="result4"
         operator="arithmetic"
         k2="0.7"
         k3="0.1"
         in2="result0"
         id="feComposite3785-7"
         k4="0" />
      <feComposite
         in="result4"
         result="result2"
         operator="atop"
         in2="result0"
         id="feComposite3787-6" />
    </filter>
    <filter
       inkscape:collect="always"
       style="color-interpolation-filters:sRGB"
       id="filter5503"
       x="-0.080409107"
       width="1.1608182"
       y="-0.022160363"
       height="1.0443207">
      <feGaussianBlur
         inkscape:collect="always"
         stdDeviation="10.003452"
         id="feGaussianBlur5505" />
    </filter>
    <filter
       inkscape:collect="always"
       style="color-interpolation-filters:sRGB"
       id="filter5507"
       x="-0.080409107"
       width="1.1608182"
       y="-0.022160364"
       height="1.0443207">
      <feGaussianBlur
         inkscape:collect="always"
         stdDeviation="10.003452"
         id="feGaussianBlur5509" />
    </filter>
    <filter
       inkscape:collect="always"
       style="color-interpolation-filters:sRGB"
       id="filter5511"
       x="-0.080409107"
       width="1.1608182"
       y="-0.022160365"
       height="1.0443207">
      <feGaussianBlur
         inkscape:collect="always"
         stdDeviation="10.003452"
         id="feGaussianBlur5513" />
    </filter>
    <filter
       inkscape:collect="always"
       style="color-interpolation-filters:sRGB"
       id="filter5515"
       x="-0.080409107"
       width="1.1608182"
       y="-0.022160364"
       height="1.0443207">
      <feGaussianBlur
         inkscape:collect="always"
         stdDeviation="10.003452"
         id="feGaussianBlur5517" />
    </filter>
    <filter
       inkscape:collect="always"
       style="color-interpolation-filters:sRGB"
       id="filter5519"
       x="-0.080409134"
       width="1.1608183"
       y="-0.022160362"
       height="1.0443207">
      <feGaussianBlur
         inkscape:collect="always"
         stdDeviation="10.003452"
         id="feGaussianBlur5521" />
    </filter>
  </defs>
  <sodipodi:namedview
     id="base"
     pagecolor="#ffffff"
     bordercolor="#666666"
     borderopacity="1.0"
     inkscape:pageopacity="0.0"
     inkscape:pageshadow="2"
     inkscape:zoom="0.58482867"
     inkscape:cx="1311.9276"
     inkscape:cy="449.58737"
     inkscape:document-units="px"
     inkscape:current-layer="layer2"
     showgrid="false"
     units="px"
     inkscape:window-width="1858"
     inkscape:window-height="1061"
     inkscape:window-x="58"
     inkscape:window-y="1076"
     inkscape:window-maximized="1"
     inkscape:object-nodes="true"
     inkscape:object-paths="true"
     inkscape:snap-global="false" />
  <metadata
     id="metadata7">
    <rdf:RDF>
      <cc:Work
         rdf:about="">
        <dc:format>image/svg+xml</dc:format>
        <dc:type
           rdf:resource="http://purl.org/dc/dcmitype/StillImage" />
        <dc:title></dc:title>
      </cc:Work>
    </rdf:RDF>
  </metadata>
  <g
     inkscape:groupmode="layer"
     id="layer4"
     inkscape:label="Paste" />
  <g
     inkscape:groupmode="layer"
     id="layer3"
     inkscape:label="Back"
     style="display:inline">
    <path
       style="fill:#000000;fill-opacity:1;fill-rule:evenodd;stroke:none;stroke-width:1px;stroke-linecap:butt;stroke-linejoin:miter;stroke-opacity:1"
       d="M 1462.2803,-0.90383357 1164.2086,540.0121 l 298.5767,542.4727 490.812,1.1425 0,-1090.5934931 -491.317,6.06235953"
       id="path5523"
       inkscape:connector-curvature="0" />
  </g>
  <g
     inkscape:label="Layer 1"
     inkscape:groupmode="layer"
     id="layer1"
     transform="translate(0,27.637839)"
     style="display:inline">
    <path
       style="display:inline;fill:none;fill-rule:evenodd;stroke:#009fe2;stroke-width:15;stroke-linecap:butt;stroke-linejoin:miter;stroke-miterlimit:4;stroke-dasharray:none;stroke-opacity:1;filter:url(#filter5503)"
       d="M 2088.1483,-19.684535 1790.0766,521.2314 2088.6533,1063.7041"
       id="path5349-4"
       inkscape:connector-curvature="0" />
    <path
       inkscape:connector-curvature="0"
       id="path5371-9"
       d="M 1630.7472,-26.398816 1332.6755,514.51712 1631.2522,1056.9898"
       style="display:inline;fill:none;fill-rule:evenodd;stroke:#009fe2;stroke-width:15;stroke-linecap:butt;stroke-linejoin:miter;stroke-miterlimit:4;stroke-dasharray:none;stroke-opacity:1;filter:url(#filter5507)" />
    <path
       style="display:inline;fill:none;fill-rule:evenodd;stroke:#009fe2;stroke-width:15;stroke-linecap:butt;stroke-linejoin:miter;stroke-miterlimit:4;stroke-dasharray:none;stroke-opacity:1;filter:url(#filter5511)"
       d="M 1783.2143,-24.827364 1485.1426,516.08857 1783.7193,1058.5612"
       id="path5373-1"
       inkscape:connector-curvature="0" />
    <path
       style="display:inline;fill:none;fill-rule:evenodd;stroke:#009fe2;stroke-width:15;stroke-linecap:butt;stroke-linejoin:miter;stroke-miterlimit:4;stroke-dasharray:none;stroke-opacity:1;filter:url(#filter5515)"
       d="M 1935.6812,-25.255903 1637.6095,515.66003 1936.1862,1058.1327"
       id="path5377-7"
       inkscape:connector-curvature="0" />
    <path
       style="display:inline;fill:none;fill-rule:evenodd;stroke:#009fe2;stroke-width:15;stroke-linecap:butt;stroke-linejoin:miter;stroke-miterlimit:4;stroke-dasharray:none;stroke-opacity:1;filter:url(#filter5519)"
       d="M 1478.2802,-28.541678 1180.2086,512.37426 1478.7852,1054.847"
       id="path5391-8"
       inkscape:connector-curvature="0" />
  </g>
  <g
     inkscape:groupmode="layer"
     id="layer2"
     inkscape:label="Layer 2"
     style="display:inline">
    <path
       style="fill:none;fill-rule:evenodd;stroke:#009fe2;stroke-width:5;stroke-linecap:butt;stroke-linejoin:miter;stroke-miterlimit:4;stroke-dasharray:none;stroke-opacity:1"
       d="m 2088.1484,7.95331 -298.0717,540.91593 298.5767,542.47266"
       id="path5349"
       inkscape:connector-curvature="0" />
    <path
       inkscape:connector-curvature="0"
       id="path5371"
       d="M 1630.7473,1.2390292 1332.6756,542.15496 1631.2523,1084.6276"
       style="fill:none;fill-rule:evenodd;stroke:#009fe2;stroke-width:5;stroke-linecap:butt;stroke-linejoin:miter;stroke-miterlimit:4;stroke-dasharray:none;stroke-opacity:1" />
    <path
       style="fill:none;fill-rule:evenodd;stroke:#009fe2;stroke-width:5;stroke-linecap:butt;stroke-linejoin:miter;stroke-miterlimit:4;stroke-dasharray:none;stroke-opacity:1"
       d="M 1783.2144,2.8104806 1485.1427,543.72641 1783.7194,1086.199"
       id="path5373"
       inkscape:connector-curvature="0" />
    <path
       style="fill:none;fill-rule:evenodd;stroke:#009fe2;stroke-width:5;stroke-linecap:butt;stroke-linejoin:miter;stroke-miterlimit:4;stroke-dasharray:none;stroke-opacity:1"
       d="M 1935.6813,2.3819414 1637.6096,543.29787 1936.1863,1085.7705"
       id="path5377"
       inkscape:connector-curvature="0" />
    <path
       style="fill:none;fill-rule:evenodd;stroke:#009fe2;stroke-width:5;stroke-linecap:butt;stroke-linejoin:miter;stroke-miterlimit:4;stroke-dasharray:none;stroke-opacity:1"
       d="M 1478.2803,-0.90383357 1180.2086,540.0121 l 298.5767,542.4727"
       id="path5391"
       inkscape:connector-curvature="0" />
    <path
       sodipodi:type="inkscape:offset"
       inkscape:radius="5.19696"
       inkscape:original="M 1525.5254 318.47656 L 1525.5254 362.78906 C 1520.9478 360.40869 1516.584 358.66895 1512.4336 357.57031 C 1508.2832 356.41064 1503.5215 355.83203 1498.1504 355.83203 C 1492.23 355.83203 1486.4937 357.05078 1480.9395 359.49219 C 1475.4463 361.93359 1470.623 365.47461 1466.4727 370.11328 C 1462.2612 374.87402 1458.9048 380.64111 1456.4023 387.41602 C 1453.9609 394.19092 1452.7402 401.91309 1452.7402 410.58008 C 1452.7402 427.24268 1456.312 440.27246 1463.4531 449.67188 C 1470.6553 459.07129 1480.3594 463.77148 1492.5664 463.77148 C 1498.853 463.77148 1504.6816 462.58154 1510.0527 460.20117 C 1515.4238 457.8208 1520.5815 454.49512 1525.5254 450.22266 L 1525.5254 460.93359 L 1542.7363 460.93359 L 1542.7363 318.47656 L 1525.5254 318.47656 z M 1199.5059 321.77344 C 1190.1064 321.77344 1181.4097 323.36133 1173.4141 326.53516 C 1165.4795 329.70898 1158.8262 334.28613 1153.4551 340.26758 C 1147.8398 346.5542 1143.5664 354.12256 1140.6367 362.97266 C 1137.707 371.76172 1136.2422 381.70996 1136.2422 392.81836 C 1136.2422 404.10986 1137.707 414.15039 1140.6367 422.93945 C 1143.6274 431.72852 1147.8701 439.14502 1153.3633 445.1875 C 1158.8564 451.22998 1165.5098 455.83789 1173.3223 459.01172 C 1181.1958 462.18555 1189.9233 463.77148 1199.5059 463.77148 C 1200.7876 463.77148 1202.1006 463.70996 1203.4434 463.58789 C 1204.8472 463.52686 1206.2812 463.375 1207.7461 463.13086 C 1208.2954 473.99512 1211.7729 482.32666 1218.1816 488.125 C 1224.6514 493.98438 1233.1963 496.91406 1243.8164 496.91406 C 1247.5396 496.91406 1251.1729 496.70068 1254.7129 496.27344 C 1258.314 495.90723 1261.9453 495.26514 1265.6074 494.34961 L 1265.6074 477.6875 L 1263.1348 477.6875 C 1261.6699 478.29785 1259.1978 478.96875 1255.7188 479.70117 C 1252.3008 480.49463 1249.3403 480.89258 1246.8379 480.89258 C 1238.7812 480.89258 1233.2275 478.97021 1230.1758 475.125 C 1227.124 471.27979 1225.4766 465.87793 1225.2324 458.91992 C 1236.707 454.34229 1245.8306 446.34717 1252.6055 434.93359 C 1259.4414 423.52002 1262.8594 409.48096 1262.8594 392.81836 C 1262.8594 381.58789 1261.3657 371.54736 1258.375 362.69727 C 1255.4453 353.84717 1251.2026 346.37109 1245.6484 340.26758 C 1240.2163 334.34717 1233.5938 329.79883 1225.7812 326.625 C 1218.0298 323.39014 1209.2715 321.77344 1199.5059 321.77344 z M 1407.9707 323.69531 L 1407.9707 341.54883 L 1427.3809 341.54883 L 1427.3809 323.69531 L 1407.9707 323.69531 z M 1673.748 324.61133 L 1673.748 406.18555 C 1673.748 416.50049 1674.8169 425.19727 1676.9531 432.27734 C 1679.1504 439.35742 1682.7202 445.39941 1687.6641 450.4043 C 1691.9976 454.79883 1697.3398 458.12646 1703.6875 460.38477 C 1710.0352 462.64307 1717.4805 463.77148 1726.0254 463.77148 C 1734.3872 463.77148 1741.7114 462.70264 1747.998 460.56641 C 1754.2847 458.43018 1759.7788 455.04297 1764.4785 450.4043 C 1769.4224 445.52148 1772.9614 439.41797 1775.0977 432.09375 C 1777.2949 424.7085 1778.3945 416.07324 1778.3945 406.18555 L 1778.3945 324.61133 L 1760.2656 324.61133 L 1760.2656 407.55859 C 1760.2656 414.21143 1759.7466 419.7959 1758.709 424.3125 C 1757.7324 428.76807 1756.0542 432.73584 1753.6738 436.21484 C 1750.9272 440.24316 1747.2651 443.26318 1742.6875 445.27734 C 1738.1099 447.23047 1732.5562 448.20703 1726.0254 448.20703 C 1719.5557 448.20703 1714.002 447.20166 1709.3633 445.1875 C 1704.7856 443.17334 1701.1543 440.18213 1698.4688 436.21484 C 1696.0884 432.73584 1694.3794 428.86035 1693.3418 424.58789 C 1692.3652 420.31543 1691.877 414.48682 1691.877 407.10156 L 1691.877 324.61133 L 1673.748 324.61133 z M 1199.5977 337.42969 C 1213.3306 337.42969 1224.1631 342.25098 1232.0977 351.89453 C 1240.0322 361.47705 1244 375.11816 1244 392.81836 C 1244 410.70166 1239.9727 424.4043 1231.916 433.92578 C 1223.9204 443.38623 1213.1475 448.11719 1199.5977 448.11719 C 1186.0479 448.11719 1175.2441 443.38623 1167.1875 433.92578 C 1159.1309 424.4043 1155.1035 410.70166 1155.1035 392.81836 C 1155.1035 375.11816 1159.0386 361.47705 1166.9121 351.89453 C 1174.8467 342.25098 1185.7427 337.42969 1199.5977 337.42969 z M 1862.623 355.83203 C 1856.1533 355.83203 1850.0498 357.14307 1844.3125 359.76758 C 1838.6362 362.33105 1833.5093 365.53564 1828.9316 369.38086 L 1828.9316 358.66992 L 1811.7188 358.66992 L 1811.7188 498.65234 L 1828.9316 498.65234 L 1828.9316 455.80664 C 1833.3872 458.24805 1837.751 460.04932 1842.0234 461.20898 C 1846.3569 462.36865 1851.1782 462.94727 1856.4883 462.94727 C 1862.5918 462.94727 1868.3589 461.72656 1873.791 459.28516 C 1879.2842 456.78271 1884.0459 453.27441 1888.0742 448.75781 C 1892.4077 443.99707 1895.7642 438.19727 1898.1445 431.36133 C 1900.5249 424.46436 1901.7148 416.86719 1901.7148 408.56641 C 1901.7148 392.02588 1898.2661 379.11523 1891.3691 369.83789 C 1884.5332 360.49951 1874.9521 355.83203 1862.623 355.83203 z M 1611.4922 356.19727 C 1604.9614 356.19727 1599.0425 357.05273 1593.7324 358.76172 C 1588.4834 360.40967 1584.1484 362.6665 1580.7305 365.53516 C 1577.1904 368.46484 1574.5356 371.79248 1572.7656 375.51562 C 1571.0566 379.23877 1570.2031 383.20459 1570.2031 387.41602 C 1570.2031 394.12988 1572.064 399.80664 1575.7871 404.44531 C 1579.5713 409.02295 1585.9497 412.50244 1594.9219 414.88281 C 1598.1567 415.7373 1601.7266 416.53125 1605.6328 417.26367 C 1609.6001 417.99609 1612.8047 418.63623 1615.2461 419.18555 C 1621.8379 420.65039 1626.2939 422.4209 1628.6133 424.49609 C 1630.9326 426.57129 1632.0918 429.62207 1632.0918 433.65039 C 1632.0918 438.89941 1629.9561 442.74609 1625.6836 445.1875 C 1621.4111 447.62891 1615.4902 448.84766 1607.9219 448.84766 C 1601.8184 448.84766 1595.4399 447.65771 1588.7871 445.27734 C 1582.1343 442.83594 1576.0923 439.57178 1570.6602 435.48242 L 1569.7441 435.48242 L 1569.7441 454.79883 C 1574.0166 456.93506 1579.2974 458.91895 1585.584 460.75 C 1591.9316 462.52002 1598.8887 463.40625 1606.457 463.40625 C 1619.8237 463.40625 1630.3525 460.41504 1638.043 454.43359 C 1645.7944 448.45215 1649.6699 440.7915 1649.6699 431.45312 C 1649.6699 424.00684 1647.5034 418.02637 1643.1699 413.50977 C 1638.8364 409.0542 1632.6714 405.91113 1624.6758 404.08008 C 1622.0513 403.46973 1618.7563 402.79688 1614.7891 402.06445 C 1610.8828 401.33203 1607.3418 400.59961 1604.168 399.86719 C 1598.4307 398.52441 1594.2803 396.78467 1591.7168 394.64844 C 1589.0923 392.51221 1587.7812 389.34033 1587.7812 385.12891 C 1587.7812 380.36816 1589.9478 376.79639 1594.2812 374.41602 C 1598.6147 371.97461 1603.9243 370.75391 1610.2109 370.75391 C 1616.2534 370.75391 1622.4185 371.88232 1628.7051 374.14062 C 1634.9917 376.33789 1640.332 379.0542 1644.7266 382.28906 L 1645.6426 382.28906 L 1645.6426 363.88672 C 1641.4922 361.75049 1636.2729 359.95117 1629.9863 358.48633 C 1623.7607 356.96045 1617.5957 356.19727 1611.4922 356.19727 z M 1289.502 358.66992 L 1289.502 425.04492 C 1289.502 437.74023 1292.4932 447.38477 1298.4746 453.97656 C 1304.4561 460.50732 1312.8184 463.77148 1323.5605 463.77148 C 1329.9692 463.77148 1335.8286 462.55078 1341.1387 460.10938 C 1346.4487 457.66797 1352.0024 454.15967 1357.8008 449.58203 L 1357.8008 460.93359 L 1375.0117 460.93359 L 1375.0117 358.66992 L 1357.8008 358.66992 L 1357.8008 435.02344 C 1353.2231 438.62451 1348.2788 441.58496 1342.9688 443.9043 C 1337.7197 446.22363 1332.8677 447.38281 1328.4121 447.38281 C 1323.4072 447.38281 1319.5933 446.77344 1316.9688 445.55273 C 1314.3442 444.33203 1312.2065 442.37891 1310.5586 439.69336 C 1308.9717 437.06885 1307.9355 433.92578 1307.4473 430.26367 C 1306.959 426.54053 1306.7148 422.08447 1306.7148 416.89648 L 1306.7148 358.66992 L 1289.502 358.66992 z M 1409.0703 358.66992 L 1409.0703 460.93359 L 1426.2812 460.93359 L 1426.2812 358.66992 L 1409.0703 358.66992 z M 1501.0801 371.57812 C 1505.4136 371.57812 1509.4121 371.97412 1513.0742 372.76758 C 1516.7363 373.56104 1520.8867 374.99512 1525.5254 377.07031 L 1525.5254 435.75586 C 1521.1919 439.17383 1516.5225 441.98242 1511.5176 444.17969 C 1506.5127 446.31592 1501.5684 447.38281 1496.6855 447.38281 C 1487.5303 447.38281 1480.877 444.23975 1476.7266 437.95312 C 1472.5762 431.60547 1470.502 422.35889 1470.502 410.21289 C 1470.502 397.88379 1473.1875 388.3623 1478.5586 381.64844 C 1483.9297 374.93457 1491.4365 371.57812 1501.0801 371.57812 z M 1858.2285 372.21875 C 1866.9565 372.21875 1873.4253 375.27148 1877.6367 381.375 C 1881.8481 387.47852 1883.9531 396.69434 1883.9531 409.02344 C 1883.9531 421.71875 1881.2676 431.30176 1875.8965 437.77148 C 1870.5254 444.24121 1863.0493 447.47461 1853.4668 447.47461 C 1849.0112 447.47461 1845.0127 447.07861 1841.4727 446.28516 C 1837.9937 445.4917 1833.8145 443.99609 1828.9316 441.79883 L 1828.9316 383.8457 C 1833.5093 380.3667 1838.2998 377.56006 1843.3047 375.42383 C 1848.3096 373.2876 1853.2847 372.21875 1858.2285 372.21875 z "
       style="font-style:normal;font-weight:normal;font-size:40px;line-height:125%;font-family:sans-serif;letter-spacing:0px;word-spacing:0px;display:inline;fill:#00ffff;fill-opacity:1;stroke:#000000;stroke-width:4.45477819;stroke-linecap:butt;stroke-linejoin:miter;stroke-miterlimit:4;stroke-dasharray:none;stroke-opacity:1"
       id="path5393"
       d="m 1525.5254,313.2793 a 5.1974797,5.1974797 0 0 0 -5.1973,5.19726 l 0,36.25586 c -2.204,-0.86178 -4.3843,-1.60563 -6.5332,-2.17578 -4.7019,-1.30955 -9.9145,-1.92187 -15.6445,-1.92187 -6.6336,0 -13.1251,1.38415 -19.3027,4.09961 a 5.1974797,5.1974797 0 0 0 -0.02,0.008 c -6.1657,2.7403 -11.6204,6.75591 -16.2285,11.90625 a 5.1974797,5.1974797 0 0 0 -0.02,0.0215 c -4.6836,5.29444 -8.3591,11.65282 -11.0528,18.94531 a 5.1974797,5.1974797 0 0 0 -0.014,0.0391 c -2.6811,7.44004 -3.9707,15.77081 -3.9707,24.92578 0,17.40528 3.7358,31.65943 11.7715,42.23633 a 5.1974797,5.1974797 0 0 0 0.014,0.0156 c 8.0643,10.52443 19.6973,16.13672 33.2383,16.13672 6.9424,0 13.534,-1.33091 19.5918,-4.01563 2.7929,-1.23776 5.5094,-2.74025 8.1699,-4.42773 l 0,0.4082 a 5.1974797,5.1974797 0 0 0 5.1973,5.19727 l 17.2109,0 a 5.1974797,5.1974797 0 0 0 5.1973,-5.19727 l 0,-142.45703 a 5.1974797,5.1974797 0 0 0 -5.1973,-5.19726 l -17.2109,0 z m -326.0195,3.29687 c -9.9848,0 -19.3656,1.69761 -28.0098,5.12891 a 5.1974797,5.1974797 0 0 0 -0.012,0.004 c -8.6042,3.44166 -15.9805,8.4977 -21.8965,15.08594 a 5.1974797,5.1974797 0 0 0 -0.01,0.01 c -6.1231,6.85515 -10.7512,15.09288 -13.877,24.53515 -3.1352,9.40966 -4.6582,19.91726 -4.6582,31.47852 0,11.74095 1.5213,22.34116 4.6621,31.76367 a 5.1974797,5.1974797 0 0 0 0.01,0.0312 c 3.1863,9.36402 7.7797,17.4472 13.8008,24.07031 6.0135,6.61496 13.3653,11.69583 21.8496,15.14258 a 5.1974797,5.1974797 0 0 0 0.012,0.006 c 8.5518,3.44727 17.971,5.13672 28.127,5.13672 1.2285,0 2.4811,-0.0759 3.7402,-0.17383 1.4132,9.4174 5.0974,17.43671 11.4492,23.1836 7.5183,6.80787 17.5463,10.13281 29.1211,10.13281 3.8998,0 7.7195,-0.22565 11.4551,-0.67383 3.8486,-0.39305 7.7151,-1.07673 11.5957,-2.04688 a 5.1974797,5.1974797 0 0 0 3.9375,-5.04101 l 0,-16.66211 a 5.1974797,5.1974797 0 0 0 -5.1973,-5.19727 l -2.4726,0 a 5.1974797,5.1974797 0 0 0 -1.9981,0.40039 c -0.7969,0.33203 -3.1497,1.02175 -6.4883,1.72461 a 5.1974797,5.1974797 0 0 0 -0.1054,0.0234 c -3.147,0.73054 -5.7537,1.05664 -7.7051,1.05664 -7.23,0 -10.9244,-1.69981 -12.5918,-3.80078 -1.7427,-2.19579 -2.9901,-5.46308 -3.5293,-9.92969 10.8417,-5.19486 19.8019,-13.33814 26.3535,-24.37304 7.4043,-12.36795 10.9863,-27.40536 10.9863,-44.77344 0,-11.67872 -1.5507,-22.27938 -4.748,-31.75391 -9e-4,-0.003 -0,-0.005 -0,-0.008 -3.1257,-9.43866 -7.725,-17.59754 -13.8125,-24.28711 a 5.1974797,5.1974797 0 0 0 -0.014,-0.0156 c -5.9563,-6.49174 -13.27,-11.49954 -21.7344,-14.93946 -8.4578,-3.52302 -17.9145,-5.23828 -28.2382,-5.23828 z m 208.4648,1.92188 a 5.1974797,5.1974797 0 0 0 -5.1973,5.19726 l 0,17.85352 a 5.1974797,5.1974797 0 0 0 5.1973,5.19726 l 19.4102,0 a 5.1974797,5.1974797 0 0 0 5.1972,-5.19726 l 0,-17.85352 a 5.1974797,5.1974797 0 0 0 -5.1972,-5.19726 l -19.4102,0 z m 265.7773,0.91601 a 5.1974797,5.1974797 0 0 0 -5.1972,5.19727 l 0,81.57422 c 0,10.67397 1.09,19.84592 3.4277,27.59375 a 5.1974797,5.1974797 0 0 0 0.012,0.0391 c 2.421,7.80069 6.4402,14.63235 11.9727,20.23437 6e-4,6.6e-4 0,0.001 0,0.002 7e-4,6.5e-4 0,0.001 0,0.002 4.9112,4.97909 10.9813,8.73521 17.9785,11.22461 7.0417,2.5052 15.0777,3.6875 24.0801,3.6875 8.8047,0 16.6937,-1.12047 23.6445,-3.48242 6.9979,-2.37789 13.2183,-6.21019 18.459,-11.38281 a 5.1974797,5.1974797 0 0 0 0,-0.002 c 5.5998,-5.53066 9.5997,-12.48704 11.9511,-20.54297 2.3744,-7.98825 3.5098,-17.10728 3.5098,-27.37304 l 0,-81.57422 a 5.1974797,5.1974797 0 0 0 -5.1973,-5.19727 l -18.1289,0 a 5.1974797,5.1974797 0 0 0 -5.1972,5.19727 l 0,82.94726 c 0,6.38256 -0.5109,11.61574 -1.4239,15.58985 a 5.1974797,5.1974797 0 0 0 -0.012,0.0508 c -0.8482,3.8696 -2.2647,7.1814 -4.248,10.08008 a 5.1974797,5.1974797 0 0 0 -0,0.008 c -2.2124,3.24482 -5.0198,5.56685 -8.7696,7.2207 -3.7527,1.59457 -8.5903,2.50196 -14.5859,2.50196 -5.9251,0 -10.7518,-0.92699 -14.5781,-2.58594 -3.7633,-1.65794 -6.5298,-3.95563 -8.6739,-7.12305 a 5.1974797,5.1974797 0 0 0 -0.016,-0.0215 c -2.0133,-2.94254 -3.456,-6.19913 -4.3555,-9.88672 -0.8276,-3.63869 -1.3281,-9.15422 -1.3281,-16.29102 l 0,-82.49023 a 5.1974797,5.1974797 0 0 0 -5.1972,-5.19727 l -18.129,0 z m -474.1503,23.21289 c 12.5165,0 21.4862,4.06258 28.4863,12.57032 a 5.1974797,5.1974797 0 0 0 0.012,0.0117 c 6.9321,8.37197 10.707,20.68584 10.707,37.60938 0,17.10307 -3.8333,29.45349 -10.8535,37.75 a 5.1974797,5.1974797 0 0 0 -0,0.002 c -7.0615,8.35512 -16.0095,12.34961 -28.3496,12.34961 -12.3369,0 -21.324,-3.99635 -28.4473,-12.35742 -7.0173,-8.29649 -10.8496,-20.64468 -10.8496,-37.74414 0,-16.92775 3.7498,-29.25156 10.625,-37.62109 6.9914,-8.49723 16.0225,-12.57032 28.6719,-12.57032 z m 663.0253,8.00782 c -7.1631,0 -14.0459,1.47137 -20.4492,4.39648 -0,6.1e-4 -0,0.001 -0,0.002 -2.807,1.26785 -5.4695,2.72544 -8.041,4.29492 l 0,-0.6582 a 5.1974797,5.1974797 0 0 0 -5.1973,-5.19726 l -17.2128,0 a 5.1974797,5.1974797 0 0 0 -5.1973,5.19726 l 0,139.98242 a 5.1974797,5.1974797 0 0 0 5.1973,5.19727 l 17.2128,0 a 5.1974797,5.1974797 0 0 0 5.1973,-5.19727 l 0,-34.66601 c 2.1817,0.8763 4.36,1.6484 6.5332,2.23828 a 5.1974797,5.1974797 0 0 0 0.018,0.004 c 4.8463,1.29691 10.121,1.91601 15.8086,1.91601 6.7964,0 13.3378,-1.37946 19.4336,-4.11914 a 5.1974797,5.1974797 0 0 0 0.023,-0.0117 c 6.1213,-2.78857 11.4994,-6.75001 15.9883,-11.77734 4.8404,-5.32311 8.5431,-11.76789 11.1191,-19.16602 a 5.1974797,5.1974797 0 0 0 0,-0.0137 c 2.5902,-7.50465 3.8555,-15.6928 3.8555,-24.49023 0,-17.25483 -3.5914,-31.35163 -11.3633,-41.81446 -7.7155,-10.52896 -19.2924,-16.11718 -32.9258,-16.11718 z M 1611.4922,351 c -6.9787,0 -13.4393,0.91474 -19.336,2.81055 -5.7461,1.8064 -10.7105,4.3463 -14.75,7.73242 -4.0398,3.34606 -7.2166,7.28844 -9.3339,11.74219 a 5.1974797,5.1974797 0 0 0 -0.029,0.0625 c -2.0191,4.39856 -3.0371,9.15477 -3.0371,14.06836 0,7.67416 2.239,14.68964 6.7285,20.2832 a 5.1974797,5.1974797 0 0 0 0.047,0.0566 c 4.7875,5.79119 12.2132,9.60468 21.8086,12.15039 a 5.1974797,5.1974797 0 0 0 0,0.002 c 3.379,0.89261 7.0709,1.7108 11.082,2.46289 a 5.1974797,5.1974797 0 0 0 0.014,0.004 c 3.927,0.72498 7.0812,1.35553 9.416,1.88086 a 5.1974797,5.1974797 0 0 0 0.014,0.002 c 6.2103,1.38006 10.0803,3.26218 11.0293,4.11133 1.0744,0.96128 1.7461,2.24992 1.7461,5.28125 0,3.83934 -0.9105,5.38051 -3.789,7.02539 -3.1236,1.78491 -8.1732,2.97461 -15.1836,2.97461 -5.4198,0 -11.1901,-1.05422 -17.3574,-3.25781 -6.196,-2.27526 -11.7688,-5.2905 -16.7793,-9.0625 a 5.1974797,5.1974797 0 0 0 -3.125,-1.04492 l -0.9161,0 a 5.1974797,5.1974797 0 0 0 -5.1972,5.19726 l 0,19.31641 a 5.1974797,5.1974797 0 0 0 2.873,4.64844 c 4.6534,2.32669 10.2069,4.39858 16.711,6.29296 a 5.1974797,5.1974797 0 0 0 0.057,0.0156 c 6.8616,1.91336 14.2955,2.84766 22.2695,2.84766 14.1402,0 25.9316,-3.19103 34.7735,-10.06641 8.7786,-6.78007 13.6367,-16.31328 13.6367,-27.08399 0,-8.45431 -2.6262,-15.99508 -7.9473,-21.54101 a 5.1974797,5.1974797 0 0 0 -0.025,-0.0254 c -5.1958,-5.34217 -12.3587,-8.87821 -21.041,-10.86914 l -0.014,-0.002 c -2.7327,-0.63525 -6.0856,-1.31843 -10.0937,-2.05859 l -0.014,-0.004 c -3.8366,-0.71954 -7.3002,-1.43582 -10.3808,-2.14648 l -0.01,-0.002 c -0,-6.7e-4 -0.01,-0.001 -0.01,-0.002 -5.2985,-1.24203 -8.7845,-2.88943 -10.2929,-4.14648 a 5.1974797,5.1974797 0 0 0 -0.045,-0.0391 c -1.3283,-1.08124 -2.0195,-2.35548 -2.0195,-5.48828 0,-3.18401 0.7534,-4.4821 3.8047,-6.15821 a 5.1974797,5.1974797 0 0 0 0.049,-0.0273 c 3.3973,-1.91397 7.7651,-2.99219 13.3789,-2.99219 5.3955,0 10.9488,1.00103 16.7364,3.08008 a 5.1974797,5.1974797 0 0 0 0.043,0.0156 c 5.8927,2.05956 10.7619,4.56106 14.6563,7.42773 a 5.1974797,5.1974797 0 0 0 3.0801,1.01172 l 0.916,0 a 5.1974797,5.1974797 0 0 0 5.1972,-5.19727 l 0,-18.40234 a 5.1974797,5.1974797 0 0 0 -2.8183,-4.6211 c -4.6624,-2.39976 -10.2543,-4.29751 -16.8223,-5.83007 -6.599,-1.61554 -13.178,-2.43555 -19.707,-2.43555 z m -321.9902,2.47266 a 5.1974797,5.1974797 0 0 0 -5.1973,5.19726 l 0,66.375 c 0,13.51163 3.2231,24.60239 10.3203,32.42383 a 5.1974797,5.1974797 0 0 0 0.018,0.0176 c 7.0284,7.67379 17.1231,11.48242 28.9179,11.48242 7.0687,0 13.719,-1.36385 19.75,-4.13672 3.063,-1.40829 6.1613,-3.16608 9.293,-5.17578 l 0,1.27734 a 5.1974797,5.1974797 0 0 0 5.1973,5.19727 l 17.2109,0 a 5.1974797,5.1974797 0 0 0 5.1973,-5.19727 l 0,-102.26367 a 5.1974797,5.1974797 0 0 0 -5.1973,-5.19726 l -17.2109,0 a 5.1974797,5.1974797 0 0 0 -5.1973,5.19726 l 0,73.63672 c -3.6813,2.67706 -7.545,5.01459 -11.7148,6.83594 a 5.1974797,5.1974797 0 0 0 -0.02,0.008 c -4.7517,2.09956 -8.9028,3.03516 -12.457,3.03516 -4.5831,0 -7.7735,-0.65803 -9.2519,-1.34571 -1.6768,-0.77986 -2.977,-1.92705 -4.1622,-3.85351 -1.1498,-1.90722 -1.9871,-4.32502 -2.3984,-7.41016 -0.447,-3.41293 -0.6875,-7.6594 -0.6875,-12.67969 l 0,-58.22656 a 5.1974797,5.1974797 0 0 0 -5.1973,-5.19726 l -17.2128,0 z m 119.5683,0 a 5.1974797,5.1974797 0 0 0 -5.1973,5.19726 l 0,102.26367 a 5.1974797,5.1974797 0 0 0 5.1973,5.19727 l 17.2109,0 a 5.1974797,5.1974797 0 0 0 5.1973,-5.19727 l 0,-102.26367 a 5.1974797,5.1974797 0 0 0 -5.1973,-5.19726 l -17.2109,0 z m 92.0098,23.30273 c 4.0169,0 7.6478,0.36881 10.8945,1.07227 2.3948,0.51886 5.2642,1.50568 8.3535,2.73828 l 0,52.45898 c -3.4271,2.48861 -7.0137,4.66527 -10.8711,6.36133 -4.4356,1.89055 -8.6517,2.7793 -12.7715,2.7793 -7.9623,0 -12.4352,-2.2739 -15.6171,-7.08985 -3.3148,-5.07768 -5.3692,-13.33766 -5.3692,-24.88281 0,-11.57444 2.5163,-19.81626 6.918,-25.31836 4.4233,-5.52915 10.0251,-8.11914 18.4629,-8.11914 z m 357.1484,0.64063 c 7.5162,0 11.8722,2.18745 15.1309,6.91015 3.2823,4.75707 5.3965,12.9597 5.3965,24.69727 0,11.96242 -2.5536,20.24352 -6.8575,25.42773 -4.4007,5.30093 -10.0182,7.82617 -18.4316,7.82617 -4.1396,0 -7.7567,-0.36969 -10.8379,-1.05859 l -0.01,-0.002 c -2.2663,-0.51732 -5.2227,-1.57096 -8.4941,-2.90821 l 0,-51.70312 c 3.6294,-2.55314 7.3468,-4.75051 11.2168,-6.40235 4.4369,-1.89379 8.6881,-2.7871 12.8828,-2.7871 z m -654.3144,91.34765 c 0.1369,-0.0141 0.1018,-0.0181 -0.1719,0.008 0.058,-0.005 0.1138,-0.003 0.1719,-0.008 z"
       transform="matrix(1.3513696,0,0,1.5394966,-675.73221,-288.87841)" />
  </g>
</svg>
